<svg width="40" height="54" viewBox="0 0 40 54" fill="none" xmlns="http://www.w3.org/2000/svg">
<path d="M20 24.5889C23.1698 24.5861 25.7365 22.0139 25.7333 18.8444C25.7306 15.675 23.1583 13.108 19.9885 13.1111C16.8194 13.1142 14.2524 15.6861 14.2556 18.8555C14.2656 22.0222 16.8333 24.5847 20 24.5889ZM20 15.3333C21.9451 15.3333 23.5222 16.91 23.5222 18.8555C23.5222 20.8007 21.9451 22.3778 20 22.3778C18.0545 22.3778 16.4778 20.8007 16.4778 18.8555C16.4781 16.9104 18.0552 15.3337 20 15.3333Z" fill="#FFA800" fill-opacity="0.5"/>
<path d="M12.2889 36.9555H27.7108C28.3243 36.9541 28.8201 36.4576 28.8219 35.8444C28.8219 33.3333 27.9111 31.0222 26.2444 29.3222C24.5958 27.6513 22.3469 26.7111 20 26.7111C17.6531 26.7111 15.4042 27.6513 13.7555 29.3222C12.0889 31.0222 11.1778 33.3333 11.1778 35.8444C11.1795 36.4576 11.6757 36.9541 12.2889 36.9555ZM15.3444 30.8777C16.5743 29.6336 18.2507 28.9333 20 28.9333C21.7489 28.9333 23.4257 29.6336 24.6552 30.8777C25.675 31.9298 26.3295 33.2812 26.5222 34.7333H13.4778C13.668 33.2805 14.3229 31.9277 15.3444 30.8777Z" fill="#FFA800" fill-opacity="0.5"/>
<path d="M34.4444 3.77778H24.4444V1.11111C24.4427 0.498264 23.9462 0.00173611 23.3333 0H16.6667C16.0538 0.00173611 15.5573 0.498264 15.5556 1.11111V3.77778H5.55556C2.48785 3.77917 0.00138889 6.26562 0 9.33333V47.5556C0.00138889 50.6233 2.48785 53.1097 5.55556 53.1111H34.4444C37.5122 53.1097 39.9986 50.6233 40 47.5556V9.33333C39.9986 6.26562 37.5122 3.77917 34.4444 3.77778ZM17.7778 2.22222H22.2222V6.66667H17.7778V2.22222ZM37.7778 47.5556C37.7726 49.3941 36.283 50.8837 34.4444 50.8889H5.55556C3.71701 50.8837 2.22743 49.3941 2.22222 47.5556V9.33333C2.22743 7.49479 3.71701 6.00521 5.55556 6H15.5556V7.77778C15.5573 8.39062 16.0538 8.88715 16.6667 8.88889H23.3333C23.9462 8.88715 24.4427 8.39062 24.4444 7.77778V6H34.4444C36.283 6.00521 37.7726 7.49479 37.7778 9.33333V47.5556Z" fill="#FFA800" fill-opacity="0.5"/>
<path d="M32.0222 44.8888H7.97778C7.36424 44.8888 6.86667 45.386 6.86667 45.9999C6.86667 46.6138 7.36424 47.111 7.97778 47.111H32.0333C32.6472 47.1079 33.142 46.6079 33.1389 45.9944C33.1358 45.3805 32.6358 44.8857 32.0222 44.8888Z" fill="#FFA800" fill-opacity="0.5"/>
<path d="M13.5333 40C12.9198 40 12.4222 40.4972 12.4222 41.1111C12.4222 41.725 12.9198 42.2222 13.5333 42.2222H26.4778C27.0917 42.2222 27.5889 41.725 27.5889 41.1111C27.5889 40.4972 27.0917 40 26.4778 40H13.5333Z" fill="#FFA800" fill-opacity="0.5"/>
</svg>
