<svg width="40" height="40" viewBox="0 0 40 40" fill="none" xmlns="http://www.w3.org/2000/svg">
<path d="M30.411 26.4615C29.1041 25.1713 27.4726 25.1713 26.1741 26.4615C25.1836 27.4437 24.1931 28.4259 23.2192 29.4248C22.9528 29.6995 22.7281 29.7577 22.4034 29.5746C21.7625 29.225 21.0799 28.942 20.464 28.5591C17.5923 26.7528 15.1867 24.4305 13.0558 21.8168C11.9986 20.5183 11.0581 19.1282 10.4005 17.5633C10.2673 17.247 10.2923 17.0389 10.5503 16.7809C11.5408 15.8236 12.5064 14.8414 13.4803 13.8592C14.8371 12.4941 14.8371 10.8959 13.472 9.52251C12.6979 8.74007 11.9237 7.97428 11.1496 7.19184C10.3505 6.39275 9.55977 5.58534 8.75236 4.79457C7.44552 3.52103 5.81405 3.52103 4.51553 4.8029C3.51667 5.78511 2.55943 6.79229 1.54393 7.75786C0.603333 8.64851 0.128875 9.73893 0.0289888 11.0125C-0.129164 13.0851 0.378589 15.0412 1.09444 16.9474C2.55943 20.8929 4.79022 24.3972 7.49546 27.6102C11.1496 31.9552 15.5113 35.393 20.6138 37.8735C22.9112 38.9888 25.2918 39.8462 27.8805 39.9877C29.6618 40.0876 31.21 39.6381 32.4503 38.248C33.2993 37.2991 34.2566 36.4334 35.1555 35.5261C36.4873 34.1777 36.4957 32.5462 35.1722 31.2144C33.5907 29.6245 32.0008 28.043 30.411 26.4615Z" fill="#E39704" fill-opacity="0.5"/>
<path d="M28.8211 19.8274L31.8926 19.303C31.4098 16.4813 30.078 13.9259 28.0553 11.8948C25.9161 9.75562 23.2109 8.40716 20.2309 7.99097L19.7981 11.0791C22.1038 11.4037 24.2014 12.4442 25.8578 14.1007C27.4227 15.6655 28.4466 17.6466 28.8211 19.8274Z" fill="#E39704" fill-opacity="0.5"/>
<path d="M33.6239 6.47594C30.078 2.92999 25.5914 0.690878 20.6388 0L20.2059 3.08814C24.4844 3.68745 28.3633 5.62691 31.4264 8.68175C34.3315 11.5868 36.2376 15.2576 36.9285 19.2946L40 18.7702C39.1926 14.0922 36.9868 9.84709 33.6239 6.47594Z" fill="#E39704" fill-opacity="0.5"/>
</svg>
