<svg width="40" height="28" viewBox="0 0 40 28" fill="none" xmlns="http://www.w3.org/2000/svg">
<path d="M38.7234 9.60166H37.5995V4.15704C37.5995 3.45204 37.028 2.88048 36.323 2.88048H18.2389V1.27656C18.2389 0.571563 17.6674 0 16.9624 0H3.68476C2.97976 0 2.4082 0.571563 2.4082 1.27656V9.60166H1.27671C0.523738 9.60166 -0.0654043 10.2506 0.00584585 10.9995L1.47108 26.3622C1.53358 27.0173 2.08382 27.5176 2.74195 27.5176H37.258C37.9161 27.5176 38.4664 27.0173 38.5289 26.3622L39.9941 10.9993C40.0655 10.2498 39.4755 9.60166 38.7234 9.60166ZM15.6858 2.55305V4.15696C15.6858 4.86196 16.2574 5.43353 16.9624 5.43353H35.0464V9.60158H4.9614V2.55305H15.6858ZM36.0975 24.9644H3.90265L2.68085 12.1548C3.56164 12.1548 35.7577 12.1548 37.3192 12.1548L36.0975 24.9644Z" fill="#E39704" fill-opacity="0.5"/>
</svg>
